<?xml version="1.0" standalone="no"?>
<!DOCTYPE svg PUBLIC "-//W3C//DTD SVG 20010904//EN"
 "http://www.w3.org/TR/2001/REC-SVG-20010904/DTD/svg10.dtd">
<svg version="1.0" xmlns="http://www.w3.org/2000/svg"
 width="512.000000pt" height="512.000000pt" viewBox="0 0 512.000000 512.000000"
 preserveAspectRatio="xMidYMid meet">

<g transform="translate(0.000000,512.000000) scale(0.100000,-0.100000)"
fill="#000000" stroke="none">
<path d="M2321 5110 c-1340 -130 -2361 -1283 -2318 -2620 13 -389 97 -726 268
-1069 249 -502 647 -900 1150 -1150 815 -406 1779 -350 2539 147 297 194 579
482 771 788 74 116 184 342 234 478 51 138 110 376 131 531 23 157 26 521 6
660 -59 415 -191 769 -410 1099 -92 140 -185 254 -315 385 -399 403 -895 653
-1462 737 -122 18 -466 26 -594 14z m380 -1547 l193 -593 645 -2 645 -3 -500
-362 c-275 -198 -509 -369 -520 -380 l-21 -18 198 -605 c109 -333 199 -606
199 -608 0 -1 -48 33 -107 76 -60 43 -254 183 -433 312 -179 128 -329 237
-334 241 -6 5 5 40 27 86 20 43 40 97 46 121 5 24 11 45 13 47 1 2 65 -42 142
-97 76 -54 140 -98 142 -96 1 2 -42 140 -97 307 -54 166 -99 308 -99 315 0 7
69 63 153 123 83 60 205 147 269 194 l117 84 -338 3 -338 2 -6 108 c-9 147
-29 230 -81 336 -71 146 -166 244 -329 341 -16 9 -6 43 95 347 62 186 116 332
119 325 4 -7 94 -279 200 -604z m-628 -181 c232 -63 369 -200 427 -428 11 -42
20 -90 20 -106 l0 -28 -180 0 c-137 0 -180 3 -180 13 0 28 -60 135 -96 169
-52 49 -112 74 -210 87 -215 30 -378 -49 -392 -189 -6 -66 2 -92 39 -130 54
-53 124 -80 421 -161 385 -105 453 -134 540 -227 85 -90 122 -195 122 -342 0
-113 -15 -180 -59 -275 -81 -171 -254 -279 -503 -315 -123 -18 -385 -8 -487
19 -199 52 -340 159 -414 314 -37 76 -71 202 -71 262 l0 25 191 -2 192 -3 17
-60 c31 -115 93 -178 212 -218 86 -28 294 -31 381 -4 116 36 186 142 158 239
-17 57 -73 109 -164 152 -82 39 -134 55 -412 126 -237 61 -342 106 -413 177
-84 84 -132 217 -132 368 0 299 173 488 503 551 111 21 390 13 490 -14z"/>
</g>
</svg>
